<svg width="200" height="200" viewBox="0 0 200 200" fill="none" xmlns="http://www.w3.org/2000/svg">
<g clip-path="url(#clip0)">
<path d="M195.161 0H7.16518C4.31219 0 2 2.31219 2 5.16518V194.835C2 197.688 4.31219 200 7.16518 200H69.6607V199.955C72.4813 199.922 74.6425 198.343 74.7418 195.671C74.9981 188.726 74.8171 181.766 74.8171 175.052C69.7836 175.287 64.9783 175.923 60.2272 175.649C49.7482 175.045 41.6959 170.574 37.5197 160.313C35.0459 154.234 31.3183 149.035 25.513 145.565C24.4289 144.917 23.4811 143.962 22.6516 142.992C21.5675 141.727 21.7703 140.428 23.4832 140.081C25.2113 139.73 27.0992 139.484 28.8033 139.803C35.4962 141.059 40.1245 145.257 43.6672 150.84C50.6724 161.885 61.4552 165.267 73.5866 160.166C74.2629 159.881 75.1227 159.192 75.2502 158.563C76.2283 153.673 78.0557 149.215 81.7382 145.306C77.6441 144.548 73.8517 143.99 70.1325 143.128C59.423 140.65 49.8021 136.191 42.7666 127.337C37.0264 120.114 34.4016 111.659 33.195 102.66C31.3053 88.5658 32.9967 75.3723 42.6761 64.1088C43.1651 63.5399 43.4303 62.3741 43.2127 61.6653C40.7885 53.7443 41.1589 45.8899 43.5616 38.0572C44.8224 33.9437 45.1735 33.7388 49.3711 34.312C49.6278 34.3465 49.8774 34.411 50.132 34.4543C58.5463 35.8464 65.7888 39.9209 72.9232 44.2952C73.8823 44.8836 75.3431 45.2498 76.397 44.9934C93.4371 40.8585 110.445 40.8757 127.483 45.0086C128.472 45.2476 129.793 44.9072 130.739 44.4118C134.617 42.3841 138.33 40.0268 142.259 38.1044C146.829 35.87 151.642 34.1892 156.825 34.2818C157.732 34.299 159.135 35.1651 159.438 35.9669C162.557 44.2283 163.214 52.6472 160.729 61.2449C160.464 62.1628 160.858 63.4708 161.352 64.3757C163.804 68.8751 167.228 73.0273 168.78 77.7999C173.51 92.3469 171.786 106.752 165.347 120.424C159.447 132.956 148.505 139.307 135.553 142.582C131.179 143.688 126.697 144.36 121.978 145.287C128.162 151.747 129.131 159.631 129.022 167.888C128.908 176.406 128.938 184.926 128.933 193.446C128.931 197.573 130.732 199.852 133.876 199.986C133.874 199.999 200.324 199.999 200.324 199.999V5.16518C200.323 2.31219 198.012 0 195.161 0Z" fill="white"/>
</g>
<defs>
<clipPath id="clip0">
<rect width="200" height="200" fill="white"/>
</clipPath>
</defs>
</svg>
